HIERARCHY
ROOT Hips
{
  OFFSET 0 0 0
  CHANNELS 6 Xposition Yposition Zposition Zrotation Yrotation Xrotation
  JOINT LeftThigh
  {
    OFFSET 8.409438 0 -5.917753
    CHANNELS 3 Zrotation Yrotation Xrotation
    JOINT LeftLeg
    {
      OFFSET 0 0 -42.358652
      CHANNELS 3 Zrotation Yrotation Xrotation
      JOINT LeftFoot
      {
        OFFSET 0 0 -39.357303
        CHANNELS 3 Zrotation Yrotation Xrotation
      }
    }
  }
  JOINT RightThigh
  {
    OFFSET -8.409438 0 -5.917753
    CHANNELS 3 Zrotation Yrotation Xrotation
    JOINT RightLeg
    {
      OFFSET 0 0 -42.358652
      CHANNELS 3 Zrotation Yrotation Xrotation
      JOINT RightFoot
      {
        OFFSET 0 0 -39.357303
        CHANNELS 3 Zrotation Yrotation Xrotation
      }
    }
  }
  JOINT SpineLow
  {
    OFFSET 0 0 4.719101
    CHANNELS 3 Zrotation Yrotation Xrotation
    JOINT SpineMid
    {
      OFFSET 0 0 12.899191
      CHANNELS 3 Zrotation Yrotation Xrotation
      JOINT Chest
      {
        OFFSET 0 0 12.899191
        CHANNELS 3 Zrotation Yrotation Xrotation
        JOINT LeftShoulder
        {
          OFFSET 7.550562 1.41573 9.438202
          CHANNELS 3 Zrotation Yrotation Xrotation
          JOINT LeftArm
          {
            OFFSET 9.155056 0 4.247191
            CHANNELS 3 Zrotation Yrotation Xrotation
            JOINT LeftForearm
            {
              OFFSET 0 0 25.771955
              CHANNELS 3 Zrotation Yrotation Xrotation
              JOINT LeftHand
              {
                OFFSET 0 0 25.197169
                CHANNELS 3 Zrotation Yrotation Xrotation
              }
            }
          }
        }
        JOINT RightShoulder
        {
          OFFSET -7.550562 1.41573 9.438202
          CHANNELS 3 Zrotation Yrotation Xrotation
          JOINT RightArm
          {
            OFFSET -9.155056 0 4.247191
            CHANNELS 3 Zrotation Yrotation Xrotation
            JOINT RightForearm
            {
              OFFSET 0 0 -25.771955
              CHANNELS 3 Zrotation Yrotation Xrotation
              JOINT RightHand
              {
                OFFSET 0 0 -25.197169
                CHANNELS 3 Zrotation Yrotation Xrotation
              }
            }
          }
        }
        JOINT Neck
        {
          OFFSET 0 0 15.101124
          CHANNELS 3 Zrotation Yrotation Xrotation
          JOINT Head
          {
            OFFSET 0 0 11.325843
            CHANNELS 3 Zrotation Yrotation Xrotation
            End Site
            {
              OFFSET 0 0 14.157303
            }
          }
        }
      }
    }
  }
}
MOTION
Frames: 8
Frame Time: 0.0
0.0  101.685394  0.0  -121.961413  49.28361  157.343294  62.704829  -28.789825  -62.694792  -29.105564  32.382791  24.782796  -10.361506  -1.804062  -1.957067  -35.853976  46.378105  -47.556186  2.530681  3.292296  52.302933  -2.000389  -20.064215  -24.429448  -3.700475  -2.27727  2.618477  -10.372965  -5.798541  7.504657  -10.372965  -5.798541  7.504657  -1.865798  33.281189  19.407513  132.169362  45.736155  -171.529004  -43.828129  -20.371213  103.811045  27.266008  15.091236  26.619303  0.419402  -0.828571  24.075247  74.806959  45.649774  35.043132  -26.828612  10.022876  -133.965955  62.007275  27.469985  35.145973  -9.414194  -15.016367  10.896404  -6.748866  -11.436097  7.890939  
0.0  101.685394  0.0  -123.132549  48.82329  156.437741  62.566994  -28.112935  -63.404728  -28.530334  32.683885  26.215348  -11.585921  -1.95617  -2.011617  -36.154057  46.211988  -48.189056  5.194218  -0.442213  56.101296  -3.759808  -18.74105  -25.426083  -4.084024  -2.308258  2.541159  -11.419844  -5.851301  7.330977  -11.419843  -5.851301  7.330977  -1.834441  34.145193  18.686201  130.128148  48.505007  -172.513845  -42.530549  -21.358904  101.783205  24.32485  12.552171  26.717349  0.75696  -0.2899  24.618328  72.928232  44.677802  34.206071  -26.938626  10.110196  -134.037924  61.703372  27.384381  34.263354  -9.046493  -14.636104  11.150599  -6.477691  -11.147981  8.098031  
0.0  101.685394  0.0  -123.779322  48.632022  155.712546  61.881018  -27.705701  -63.130556  -27.211069  32.017798  27.854663  -12.856109  -2.156809  -2.090906  -36.159089  46.691671  -49.051802  6.365692  -4.458115  59.715607  -5.957453  -17.79222  -25.751977  -4.456538  -2.326781  2.516919  -12.439343  -5.863341  7.299464  -12.439343  -5.863341  7.299464  -1.814246  35.12091  17.356695  128.031272  50.750034  -173.836122  -41.075401  -22.679442  99.662767  21.848319  9.662321  27.124283  1.2058  0.304458  25.044648  71.608424  43.666621  33.83158  -26.979721  10.160842  -134.097585  61.361965  27.308597  33.430605  -8.457582  -14.148019  11.360074  -6.045165  -10.7738  8.278701  
0.0  101.685394  0.0  -123.872158  48.700777  155.233926  61.414471  -27.493026  -62.533036  -26.097363  31.160714  29.355543  -13.968045  -2.309044  -2.282527  -36.83374  46.759462  -50.721281  6.965503  -7.94588  62.853243  -8.189357  -17.094338  -25.207753  -4.771358  -2.321021  2.565782  -13.303721  -5.801558  7.457497  -13.30372  -5.801558  7.457497  -2.099245  36.182916  15.692651  125.415851  53.08868  -175.741613  -39.874143  -24.209021  97.404615  19.649684  6.574905  27.757254  1.42976  0.959234  25.149814  70.913652  42.675867  33.690717  -26.988985  10.010826  -133.776303  61.269067  26.699626  33.152576  -7.721546  -13.693454  11.390802  -5.505881  -10.419172  8.327547  
0.0  101.685394  0.0  -123.135979  49.058356  155.443595  61.625208  -27.505129  -62.03966  -25.355221  30.661853  30.521736  -14.474921  -2.436111  -2.488121  -37.812374  45.803183  -52.999333  6.911728  -8.970191  65.804207  -8.865808  -16.729063  -24.015138  -4.989882  -2.283256  2.628409  -13.901129  -5.660066  7.637483  -13.901128  -5.660066  7.637482  -2.277955  36.948742  14.714412  122.207035  55.901762  -177.77631  -39.143812  -25.75368  95.0266  17.680057  3.503311  28.498558  1.550417  1.454403  25.114924  70.280276  41.631269  33.717591  -26.992716  9.979046  -133.60505  60.967057  26.561674  32.34286  -6.931461  -13.355188  11.336595  -4.924975  -10.149722  8.310838  
0.0  101.685394  0.0  -121.636345  49.667327  156.412169  62.34758  -27.916221  -61.727138  -24.621985  30.662649  31.286122  -14.263161  -2.545945  -2.657379  -38.690149  44.15144  -55.520137  6.456105  -7.368516  69.090699  -7.375295  -16.827816  -23.094875  -5.132507  -2.24518  2.647349  -14.287253  -5.535455  7.691576  -14.287252  -5.535455  7.691576  -2.27452  37.278791  13.847135  118.588511  58.072305  -179.873875  -38.813058  -27.324991  92.709578  15.912315  0.64931  29.240686  1.679647  2.045657  25.238741  69.841363  40.714169  33.773141  -27.111136  9.87907  -133.201131  60.642201  26.317963  31.559329  -6.183279  -13.028048  11.295289  -4.374462  -9.889731  8.301723  
0.0  101.685394  0.0  -119.311166  50.474942  157.977626  63.522724  -28.921571  -61.620989  -23.880717  31.206249  31.833941  -13.848761  -2.556479  -2.638963  -39.147489  42.263931  -57.997447  5.866806  -3.857403  72.604574  -4.275363  -17.055841  -22.458501  -5.211965  -2.192951  2.621487  -14.49525  -5.38984  7.615097  -14.495251  -5.38984  7.615097  -2.174729  37.609913  13.374894  115.353897  59.73415  178.075028  -38.703351  -28.703333  90.78269  14.28849  -1.766549  29.721499  1.760676  2.682107  25.558053  69.387216  39.595067  33.948878  -27.181606  9.876322  -132.950965  60.332761  26.046186  30.895817  -5.5391  -12.678674  11.426952  -3.898222  -9.616816  8.419106  
0.0  101.685394  0.0  -116.665237  51.313889  159.661135  64.602235  -30.164432  -61.407077  -23.101411  31.642941  32.353431  -13.188964  -2.447477  -2.687745  -39.300397  40.280411  -60.189847  5.599935  0.789996  75.956913  -0.455601  -17.336698  -21.783712  -5.273376  -2.139059  2.583746  -14.652954  -5.244697  7.504285  -14.652952  -5.244697  7.504284  -2.168059  37.841189  12.699299  113.213743  60.644415  176.641516  -38.401279  -29.538737  89.278931  12.822579  -3.759401  29.701148  1.756531  3.399291  26.005336  69.125982  38.492427  34.116058  -27.147375  9.733477  -132.616487  60.185653  25.843237  30.377983  -5.029713  -12.298658  11.651418  -3.521416  -9.324058  8.602763  
